<?xml version="1.0" standalone="no"?>
<!DOCTYPE svg PUBLIC "-//W3C//DTD SVG 20010904//EN"
 "http://www.w3.org/TR/2001/REC-SVG-20010904/DTD/svg10.dtd">
<svg version="1.0" xmlns="http://www.w3.org/2000/svg"
 width="512.000000pt" height="512.000000pt" viewBox="0 0 512.000000 512.000000"
 preserveAspectRatio="xMidYMid meet">

<g transform="translate(0.000000,512.000000) scale(0.100000,-0.100000)"
fill="#000000" stroke="none">
<path d="M3019 4021 c-31 -32 -39 -79 -18 -123 5 -13 345 -293 754 -623 l744
-600 -2107 -5 c-2318 -6 -2135 0 -2167 -66 -19 -40 -19 -48 0 -88 32 -66 -151
-60 2167 -66 l2107 -5 -732 -590 c-402 -324 -742 -601 -754 -614 -17 -17 -23
-36 -23 -68 0 -86 90 -132 165 -84 61 39 1709 1377 1729 1404 27 37 27 97 0
134 -20 27 -1668 1365 -1729 1404 -46 29 -101 25 -136 -10z"/>
</g>
</svg>
