<?xml version="1.0" standalone="no"?>
<!DOCTYPE svg PUBLIC "-//W3C//DTD SVG 20010904//EN"
 "http://www.w3.org/TR/2001/REC-SVG-20010904/DTD/svg10.dtd">
<svg version="1.0" xmlns="http://www.w3.org/2000/svg"
 width="512.000000pt" height="512.000000pt" viewBox="0 0 512.000000 512.000000"
 preserveAspectRatio="xMidYMid meet">

<g transform="translate(0.000000,512.000000) scale(0.100000,-0.100000)"
fill="#000000" stroke="none">
<path d="M1965 4031 c-62 -40 -1709 -1377 -1729 -1404 -27 -37 -27 -97 0 -134
20 -27 1667 -1364 1729 -1404 95 -61 201 31 154 133 -5 13 -345 293 -754 623
l-743 600 2106 5 c2318 6 2135 0 2167 66 8 18 15 37 15 44 0 7 -7 26 -15 44
-32 66 151 60 -2167 66 l-2106 5 743 600 c409 330 749 610 754 623 47 102 -59
194 -154 133z"/>
</g>
</svg>
