<?xml version="1.0" standalone="no"?>
<!DOCTYPE svg PUBLIC "-//W3C//DTD SVG 20010904//EN"
 "http://www.w3.org/TR/2001/REC-SVG-20010904/DTD/svg10.dtd">
<svg version="1.0" xmlns="http://www.w3.org/2000/svg"
 width="512.000000pt" height="512.000000pt" viewBox="0 0 512.000000 512.000000"
 preserveAspectRatio="xMidYMid meet">

<g transform="translate(0.000000,512.000000) scale(0.100000,-0.100000)"
fill="#000000" stroke="none">
<path d="M445 4280 c-209 -26 -377 -176 -430 -385 -23 -89 -23 -2581 0 -2670
47 -183 174 -316 355 -370 64 -20 109 -20 2190 -20 2081 0 2126 0 2190 20 181
54 308 187 355 370 13 51 15 227 15 1335 0 1402 3 1328 -61 1456 -55 109 -150
189 -288 243 l-66 26 -2100 1 c-1155 1 -2127 -2 -2160 -6z m3190 -1301 c-534
-533 -982 -977 -997 -985 -35 -18 -121 -18 -156 0 -15 8 -463 452 -997 985
l-970 971 2045 0 2045 0 -970 -971z m-2718 99 l573 -573 -572 -572 c-315 -315
-576 -573 -580 -573 -5 0 -8 515 -8 1145 0 630 3 1145 7 1145 5 0 266 -258
580 -572z m3873 -573 c0 -630 -3 -1145 -7 -1145 -5 0 -266 258 -580 572 l-573
573 572 572 c315 315 576 573 580 573 5 0 8 -515 8 -1145z m-2450 -809 c146
-69 294 -69 440 0 69 33 95 56 345 304 l270 270 550 -550 550 -550 -1935 0
-1935 0 550 550 550 550 270 -270 c250 -248 276 -271 345 -304z"/>
</g>
</svg>
